<svg width="49" height="46" viewBox="0 0 49 46" fill="none" xmlns="http://www.w3.org/2000/svg">
<path d="M31.2584 33.4484C34.7133 31.3115 37.5732 28.34 39.5734 24.8092C44.4006 15.9879 41.0212 7.08374 32.0142 4.87327C26.5958 3.54925 20.3879 4.94146 15.2757 8.16239C11.8208 10.2955 8.96304 13.267 6.96937 16.7991C2.13349 25.6229 5.51543 34.5356 14.5285 36.735C19.9384 38.0615 26.1462 36.6693 31.267 33.4459L31.2584 33.4484Z" fill="url(#paint0_linear_4015_2122)"/>
<path d="M6.44213 32.1589L8.18106 34.9594L8.55246 34.7306C10.273 36.2601 12.3459 37.3341 14.5826 37.855C20.0981 39.2289 26.4087 37.81 31.6438 34.5031C35.1582 32.3269 38.0637 29.2901 40.0888 25.6765C42.3652 21.5021 42.8362 17.2967 41.7776 13.7573L42.1551 13.5174L40.4485 10.8292C38.5769 7.96434 35.6553 5.95584 32.3208 5.24166C26.8163 3.87399 20.4972 5.29533 15.2596 8.59364C11.7453 10.7729 8.84065 13.8126 6.81705 17.4288C3.90523 22.7876 3.9477 28.1919 6.41633 32.1664L6.44213 32.1589Z" fill="url(#paint1_linear_4015_2122)"/>
<path d="M33.4811 37.1628C37.0375 34.9752 39.9816 31.9286 42.0383 28.3075C47.0168 19.2789 43.5425 10.1091 34.261 7.87898C28.7052 6.52779 22.318 7.96902 17.0174 11.2845C13.4669 13.4814 10.5283 16.5323 8.47404 20.1545C3.4955 29.1831 6.96981 38.353 16.2488 40.5744C21.8157 41.9317 28.1942 40.493 33.4923 37.169L33.4811 37.1628Z" fill="url(#paint2_linear_4015_2122)"/>
<g style="mix-blend-mode:multiply">
<path d="M31.856 34.2799C34.6208 32.5688 36.9099 30.1923 38.5124 27.3697C42.3908 20.3268 39.6826 13.1852 32.4644 11.4189C28.1253 10.3633 23.1559 11.4797 19.0341 14.0707C16.2602 15.7743 13.9662 18.1535 12.369 20.9834C8.49054 28.0263 11.1989 35.1678 18.417 36.9342C22.7561 37.9898 27.7256 36.8733 31.856 34.2799Z" fill="#D0A662"/>
</g>
<path d="M19.084 14.3241C23.2189 11.7139 28.2167 10.5928 32.5682 11.6703C39.8214 13.469 42.5553 20.6906 38.6733 27.7999C37.0712 30.6505 34.7761 33.0479 32.001 34.7698C27.8661 37.38 22.8682 38.5012 18.5143 37.4149C11.2549 35.6274 8.52092 28.4059 12.4029 21.2966C14.0017 18.44 16.3012 16.0403 19.084 14.3241ZM33.7198 37.495C37.2421 35.3197 40.1541 32.282 42.1824 28.6671C47.1246 19.6837 43.6381 10.5067 34.4039 8.24046C28.8865 6.87597 22.5531 8.29749 17.3104 11.6053C13.8107 13.7844 10.9209 16.8187 8.9113 20.4243C3.96905 29.4077 7.45312 38.576 16.6898 40.851C22.2072 42.2155 28.5405 40.7939 33.7746 37.4887L33.7198 37.495Z" fill="url(#paint3_linear_4015_2122)"/>
<path d="M15.9187 29.6791L18.4136 30.3107L18.876 29.4451C19.0483 29.6637 19.2399 29.8661 19.4483 30.0496C19.7171 30.3063 20.0096 30.5362 20.3217 30.7362L19.0802 33.0375L19.3568 33.4833L19.8397 33.297L19.8272 33.2537L21.5032 33.7086L22.5853 31.6881C23.3182 31.8759 24.0733 31.9552 24.8271 31.9234C25.5762 31.9021 26.3176 31.7735 27.0295 31.5413C27.5309 31.3708 28.0115 31.1439 28.4624 30.8649C28.6242 30.7525 28.7861 30.6401 28.9454 30.5191C29.5357 30.064 30.0217 29.4852 30.3705 28.8219C30.8217 28.1089 31.0449 27.2713 31.01 26.4221C30.947 25.7893 30.7149 25.1846 30.3387 24.6729C29.9488 24.168 29.4708 23.7395 28.9286 23.409L27.3642 22.4432C26.9521 22.2013 26.5718 21.9073 26.2328 21.5682C26.115 21.4535 26.0381 21.3025 26.0145 21.1393C25.9908 20.976 26.0217 20.8098 26.1023 20.6672C26.1855 20.5276 26.3008 20.4106 26.4386 20.3261C26.539 20.2646 26.6446 20.2121 26.7542 20.1694C27.1411 20.0483 27.5558 20.0462 27.9458 20.1634C28.2637 20.2302 28.5647 20.3641 28.829 20.5564C29.0933 20.7486 29.3149 20.9948 29.4795 21.2789C29.6458 21.5891 29.7462 21.9307 29.7742 22.2816C29.8021 22.6325 29.757 22.9848 29.6418 23.3158L29.916 23.753L30.2894 23.4763L32.7954 24.1141L34.9982 20.0148L35.8521 19.3836L35.5754 18.9378L32.4218 18.1395L31.9714 18.9829C31.4823 18.4029 30.8966 17.9142 30.2411 17.5392L31.06 16.017L31.6834 15.8371L31.4067 15.3913L28.9424 14.7696L27.8795 16.7283C27.1398 16.5784 26.3874 16.5062 25.6342 16.5127C24.9001 16.5097 24.1706 16.6189 23.4705 16.8368C22.9606 16.9918 22.4747 17.2173 22.0265 17.5069C21.8707 17.6082 21.7235 17.707 21.5727 17.8256C20.9826 18.2864 20.4983 18.8711 20.1527 19.5401C19.6962 20.2682 19.4652 21.1191 19.489 21.9844C19.5501 22.6268 19.7849 23.2411 20.1677 23.7596C20.5709 24.2694 21.0596 24.7036 21.6109 25.0421L23.2086 26.0265C23.6287 26.2758 24.023 26.5678 24.3851 26.8979C24.5125 27.0039 24.5984 27.1525 24.6271 27.3165C24.6557 27.4806 24.6252 27.6491 24.5412 27.7914C24.4595 27.952 24.3345 28.0857 24.1807 28.1771C24.0668 28.2502 23.941 28.3024 23.809 28.3313C23.4696 28.4112 23.1164 28.4137 22.7748 28.3386C22.4332 28.2635 22.1117 28.1127 21.8335 27.897C21.5874 27.7159 21.3817 27.484 21.2303 27.2169C21.0848 26.9499 20.9994 26.654 20.9802 26.3505C20.9706 26.2442 20.9707 26.1373 20.9806 26.0312L21.3947 25.7991L21.1205 25.362L17.9362 24.5538L15.2117 29.6015L15.4883 30.0473L15.9187 29.6791Z" fill="url(#paint4_linear_4015_2122)"/>
<path d="M28.6837 31.2034C28.8521 31.0986 29.0152 30.986 29.1729 30.8656C29.7685 30.4044 30.2605 29.8223 30.617 29.1572C31.0675 28.4422 31.2936 27.6075 31.2664 26.7607C31.2018 26.1325 30.9677 25.5333 30.5894 25.0279C30.2013 24.5224 29.721 24.0955 29.1742 23.7702L27.6027 22.8103C27.178 22.5712 26.7824 22.2833 26.4238 21.9524C26.2932 21.8373 26.2073 21.6794 26.1814 21.507C26.1555 21.3345 26.1913 21.1586 26.2824 21.0104C26.3622 20.8676 26.4795 20.7496 26.6216 20.6692C26.7205 20.6036 26.8273 20.5508 26.9394 20.5119C27.3276 20.3814 27.7474 20.3783 28.1382 20.5029C28.4574 20.5684 28.7597 20.6998 29.0259 20.8889C29.2921 21.078 29.5163 21.3205 29.6843 21.6012C29.8503 21.9111 29.9494 22.2525 29.9752 22.6032C30.0009 22.9538 29.9528 23.3057 29.8339 23.636L33.0043 24.4246L35.8165 19.2606L32.6461 18.4719L32.1883 19.3061C31.6943 18.7322 31.1069 18.2465 30.4514 17.8697L31.6293 15.7233L29.1519 15.1091L28.0863 17.064C27.3399 16.9146 26.5799 16.8452 25.8194 16.857C25.0809 16.8558 24.3469 16.9667 23.642 17.1859C23.1287 17.3419 22.6393 17.5682 22.1877 17.8583C22.0158 17.9079 21.8824 18.0587 21.7279 18.1688C21.1383 18.6356 20.6505 19.2192 20.2949 19.8834C19.8361 20.6153 19.6026 21.4673 19.6236 22.333C19.6811 22.9721 19.9186 23.5821 20.3081 24.0917C20.7046 24.6043 21.193 25.038 21.7481 25.3704L23.3553 26.3574C23.7748 26.6046 24.1696 26.8919 24.5341 27.2153C24.662 27.3208 24.748 27.4689 24.7764 27.6325C24.8048 27.7962 24.7738 27.9644 24.6889 28.1067C24.6033 28.2614 24.4814 28.3929 24.3339 28.4899C24.2162 28.564 24.0867 28.6172 23.951 28.6472C23.5855 28.7274 23.2059 28.7182 22.8442 28.6203C22.5334 28.5487 22.2419 28.409 21.9906 28.2114C21.603 27.9308 21.32 27.528 21.1871 27.0673C21.0542 26.6067 21.079 26.115 21.2575 25.6711L18.0563 24.8726L15.3051 29.9255L18.5149 30.7214L18.9823 29.8565C19.158 30.0716 19.35 30.2728 19.5565 30.4583C19.8261 30.7139 20.1198 30.9427 20.4334 31.1413L19.2499 33.4297L21.7188 34.0464L22.8149 32.0359C23.5524 32.2174 24.3113 32.2945 25.0695 32.2651C25.8227 32.2391 26.5681 32.106 27.2835 31.8695C27.7916 31.7061 28.2766 31.478 28.7267 31.191L28.6837 31.2034Z" fill="url(#paint5_linear_4015_2122)"/>
<defs>
<linearGradient id="paint0_linear_4015_2122" x1="26.9054" y1="35.9532" x2="19.5446" y2="5.85696" gradientUnits="userSpaceOnUse">
<stop offset="0.16" stop-color="#FFF8C7"/>
<stop offset="0.2" stop-color="#FFF6C1"/>
<stop offset="0.25" stop-color="#FFF0B1"/>
<stop offset="0.3" stop-color="#FEE696"/>
<stop offset="0.36" stop-color="#FED871"/>
<stop offset="0.42" stop-color="#FDC741"/>
<stop offset="0.47" stop-color="#FCB717"/>
<stop offset="0.54" stop-color="#B55D05"/>
<stop offset="0.56" stop-color="#9F4200"/>
<stop offset="0.61" stop-color="#A04701"/>
<stop offset="0.65" stop-color="#DB9414"/>
<stop offset="0.66" stop-color="#FEC220"/>
<stop offset="0.81" stop-color="#E89A04"/>
<stop offset="0.82" stop-color="#EBA412"/>
<stop offset="0.83" stop-color="#F2B92F"/>
<stop offset="0.84" stop-color="#F7C946"/>
<stop offset="0.86" stop-color="#FBD556"/>
<stop offset="0.88" stop-color="#FDDC60"/>
<stop offset="0.9" stop-color="#FEDE63"/>
<stop offset="1" stop-color="#FCC643"/>
</linearGradient>
<linearGradient id="paint1_linear_4015_2122" x1="43.2003" y1="7.25327" x2="9.22481" y2="28.7145" gradientUnits="userSpaceOnUse">
<stop stop-color="#EBAB00"/>
<stop offset="0.08" stop-color="#FFC524"/>
<stop offset="0.15" stop-color="#FFD759"/>
<stop offset="0.41" stop-color="#FFF4A5"/>
<stop offset="0.42" stop-color="#FFF09F"/>
<stop offset="0.44" stop-color="#FDE68F"/>
<stop offset="0.46" stop-color="#FBD674"/>
<stop offset="0.48" stop-color="#F8BF4F"/>
<stop offset="0.5" stop-color="#F4A120"/>
<stop offset="0.52" stop-color="#F28E00"/>
<stop offset="0.56" stop-color="#CA4E00"/>
<stop offset="0.61" stop-color="#A14D00"/>
<stop offset="0.65" stop-color="#EBA500"/>
<stop offset="0.66" stop-color="#F0B116"/>
<stop offset="0.67" stop-color="#F6C137"/>
<stop offset="0.68" stop-color="#FBCD4E"/>
<stop offset="0.69" stop-color="#FFD761"/>
<stop offset="0.73" stop-color="#FFD75F"/>
<stop offset="0.75" stop-color="#FFD558"/>
<stop offset="0.76" stop-color="#FFCF3C"/>
<stop offset="0.77" stop-color="#FFCB29"/>
<stop offset="0.78" stop-color="#FCC524"/>
<stop offset="0.8" stop-color="#F4B418"/>
<stop offset="0.82" stop-color="#E9A216"/>
<stop offset="0.83" stop-color="#F5C64B"/>
<stop offset="0.84" stop-color="#FCDB6B"/>
<stop offset="0.85" stop-color="#FEE173"/>
<stop offset="0.86" stop-color="#FEE275"/>
<stop offset="0.94" stop-color="#FEE47E"/>
<stop offset="1" stop-color="#FED94B"/>
</linearGradient>
<linearGradient id="paint2_linear_4015_2122" x1="28.9948" y1="39.7439" x2="21.4478" y2="8.90737" gradientUnits="userSpaceOnUse">
<stop offset="0.16" stop-color="#DE8200"/>
<stop offset="0.21" stop-color="#E18802"/>
<stop offset="0.27" stop-color="#E89809"/>
<stop offset="0.34" stop-color="#F3B314"/>
<stop offset="0.37" stop-color="#F8BD18"/>
<stop offset="0.43" stop-color="#F6AD1A"/>
<stop offset="0.47" stop-color="#F49F1C"/>
<stop offset="0.54" stop-color="#9F4000"/>
<stop offset="0.61" stop-color="#A04701"/>
<stop offset="0.71" stop-color="#FEC423"/>
<stop offset="1" stop-color="#B66300"/>
</linearGradient>
<linearGradient id="paint3_linear_4015_2122" x1="7.08761" y1="29.1454" x2="43.6718" y2="20.1972" gradientUnits="userSpaceOnUse">
<stop stop-color="#EFA611"/>
<stop offset="0.41" stop-color="#FFC500"/>
<stop offset="0.53" stop-color="#FDBF00"/>
<stop offset="0.7" stop-color="#F6AF00"/>
<stop offset="0.88" stop-color="#EA9400"/>
<stop offset="1" stop-color="#E17F00"/>
</linearGradient>
<linearGradient id="paint4_linear_4015_2122" x1="33.5767" y1="29.1807" x2="17.908" y2="4.66442" gradientUnits="userSpaceOnUse">
<stop offset="0.16" stop-color="#CA7700"/>
<stop offset="0.26" stop-color="#C67100"/>
<stop offset="0.38" stop-color="#B96100"/>
<stop offset="0.51" stop-color="#A44600"/>
<stop offset="0.54" stop-color="#9F4000"/>
<stop offset="0.61" stop-color="#A04701"/>
<stop offset="0.71" stop-color="#B35C00"/>
<stop offset="1" stop-color="#9F5800"/>
</linearGradient>
<linearGradient id="paint5_linear_4015_2122" x1="33.8111" y1="29.5878" x2="18.2371" y2="5.08126" gradientUnits="userSpaceOnUse">
<stop stop-color="#EFA611"/>
<stop offset="0.41" stop-color="#FFC500"/>
<stop offset="0.52" stop-color="#FDBF00"/>
<stop offset="0.66" stop-color="#F6AF00"/>
<stop offset="0.77" stop-color="#EF9E00"/>
<stop offset="1" stop-color="#C26B00"/>
</linearGradient>
</defs>
</svg>
