<svg width="89" height="84" viewBox="0 0 89 84" fill="none" xmlns="http://www.w3.org/2000/svg">
<path d="M30.2313 25.2878C24.829 29.6986 20.6264 35.3967 18.0125 41.8544C11.7708 57.95 19.5166 72.3494 35.3424 74.0953C44.8617 75.1359 55.1165 71.3763 63.097 64.7493C68.5001 60.345 72.6991 54.6474 75.3017 48.1888C81.5575 32.0871 73.8056 17.6736 57.9718 15.9479C48.4666 14.9012 38.2118 18.6608 30.2172 25.2939L30.2313 25.2878Z" fill="url(#paint0_linear_4001_2648)"/>
<path d="M72.7598 21.9266L69.1729 17.5492L68.592 18.0218C65.321 15.8036 61.5522 14.4396 57.6285 14.0537C47.9327 12.9502 37.5091 16.7781 29.3386 23.579C23.844 28.0699 19.5783 33.8893 16.9404 40.4936C14.0004 48.1086 14.1401 55.3721 16.7345 61.1596L16.1456 61.6525L19.6522 65.8461C23.4794 70.3034 28.902 73.068 34.7375 73.537C44.4131 74.6326 54.8508 70.7985 63.0274 64.0117C68.5213 59.5156 72.7847 53.6914 75.4195 47.083C79.176 37.3098 77.8938 28.1205 72.802 21.9082L72.7598 21.9266Z" fill="url(#paint1_linear_4001_2648)"/>
<path d="M25.6159 19.4633C20.0522 23.9832 15.7231 29.8281 13.0331 36.452C6.58047 52.9345 14.5472 67.7648 30.8447 69.4827C40.6038 70.5387 51.153 66.6555 59.4329 59.8255C64.9845 55.2911 69.3032 49.4402 71.9889 42.8149C78.4416 26.3324 70.4749 11.5021 54.1835 9.79833C44.404 8.73438 33.8692 12.6113 25.5955 19.4554L25.6159 19.4633Z" fill="url(#paint2_linear_4001_2648)"/>
<g style="mix-blend-mode:multiply">
<path d="M29.0282 24.0066C24.7054 27.5381 21.3409 32.0957 19.2454 37.2589C14.2206 50.1151 20.4293 61.6645 33.1109 63.0551C40.7329 63.8804 48.9416 60.8674 55.3772 55.5345C59.7174 52.0137 63.0894 47.4504 65.1744 42.2759C70.1992 29.4197 63.9904 17.8703 51.3087 16.4798C43.6867 15.6545 35.478 18.6674 29.0282 24.0066Z" fill="#D0A662"/>
</g>
<path d="M55.2349 55.1145C48.7813 60.4832 40.5253 63.5104 32.8774 62.6506C20.1288 61.2128 13.8586 49.5329 18.8745 36.5628C20.9634 31.3522 24.3331 26.7575 28.6711 23.2054C35.1248 17.8367 43.3808 14.8094 51.0349 15.6835C63.7915 17.1008 70.0619 28.7807 65.046 41.7507C62.9642 46.9709 59.5875 51.5704 55.2349 55.1145ZM25.1353 18.9516C19.627 23.4429 15.3505 29.2653 12.7075 35.8725C6.30643 52.2698 14.2957 67.1096 30.5207 68.8995C40.2174 69.9868 50.6793 66.1492 58.8625 59.3452C64.3316 54.8525 68.5711 49.0408 71.1844 42.4536C77.5854 26.0563 69.6024 11.2307 53.3712 9.42653C43.6744 8.33927 33.2125 12.1768 25.0436 18.9747L25.1353 18.9516Z" fill="url(#paint3_linear_4001_2648)"/>
<path d="M57.1852 28.2691L52.7971 27.7526L52.2038 29.3294C51.8616 28.9959 51.4902 28.6944 51.0944 28.4286C50.5793 28.0519 50.03 27.726 49.454 27.4555L51.0519 23.2605L50.4813 22.5636L49.7011 22.9888L49.7321 23.0597L46.7774 22.6606L45.388 26.3421C44.0984 26.1865 42.7953 26.2206 41.5195 26.4434C40.2492 26.6474 39.0159 27.0324 37.8563 27.5869C37.041 27.9894 36.2737 28.4832 35.5687 29.059C35.3184 29.2865 35.0681 29.5141 34.8241 29.7558C33.9212 30.6626 33.2235 31.7565 32.7783 32.9638C32.1699 34.2783 31.9776 35.7539 32.227 37.1916C32.4759 38.2546 33.0064 39.232 33.7614 40.0187C34.538 40.7909 35.4476 41.4131 36.4444 41.8542L39.3236 43.148C40.0791 43.4674 40.7922 43.8828 41.4452 44.384C41.6714 44.5528 41.836 44.7926 41.9128 45.0652C41.9896 45.3378 41.9742 45.6276 41.869 45.8883C41.7587 46.1446 41.5886 46.3696 41.373 46.5442C41.2159 46.6715 41.0479 46.7844 40.871 46.8817C40.2394 47.1745 39.534 47.2709 38.844 47.1587C38.2878 47.1161 37.7456 46.9555 37.2527 46.6875C36.7598 46.4195 36.3274 46.05 35.9837 45.6033C35.6312 45.1125 35.3838 44.5535 35.2576 43.9626C35.1315 43.3716 35.1294 42.7617 35.2513 42.1725L34.6868 41.4899L34.1131 42.0445L29.7048 41.5199L26.8732 48.9905L25.5611 50.2561L26.1319 50.953L31.6784 51.6056L32.2562 50.0693C33.2185 50.947 34.325 51.6477 35.5245 52.1392L34.4715 54.9136L33.4507 55.3594L34.0215 56.0562L38.3552 56.5627L39.7258 52.9908C41.0185 53.0803 42.3154 53.0348 43.5959 52.855C44.8461 52.6959 46.0633 52.3466 47.2063 51.819C48.0395 51.4409 48.816 50.9483 49.5141 50.355C49.7565 50.1478 49.985 49.9466 50.2151 49.711C51.1165 48.7945 51.8099 47.6908 52.2483 46.4748C52.8623 45.1332 53.065 43.6332 52.8308 42.1657C52.583 41.0859 52.0457 40.0928 51.278 39.296C50.4776 38.5186 49.5487 37.889 48.5344 37.4362L45.5946 36.1183C44.8236 35.788 44.0873 35.3793 43.397 34.8986C43.1564 34.7465 42.9769 34.5129 42.8914 34.2401C42.8059 33.9673 42.8201 33.6736 42.9312 33.4125C43.0343 33.1209 43.2171 32.8655 43.4585 32.6754C43.636 32.5255 43.8384 32.4085 44.0567 32.3297C44.6164 32.1178 45.2171 32.0345 45.8154 32.0858C46.4136 32.1371 46.9946 32.3218 47.5163 32.6266C47.9759 32.8798 48.3778 33.2284 48.6954 33.6491C49.0029 34.0711 49.2145 34.5557 49.315 35.068C49.3552 35.2467 49.379 35.4287 49.3859 35.6115L48.7331 36.0993L49.2976 36.7819L54.8985 37.4446L58.4058 28.2429L57.8353 27.546L57.1852 28.2691Z" fill="url(#paint4_linear_4001_2648)"/>
<path d="M35.1165 28.5328C34.8532 28.7488 34.6008 28.9769 34.3593 29.2172C33.4489 30.1355 32.7417 31.2365 32.2838 32.4485C31.6772 33.7662 31.4791 35.2377 31.715 36.6729C31.9657 37.7278 32.4982 38.6952 33.2552 39.4708C34.0291 40.2444 34.9422 40.8634 35.9458 41.2947L38.8356 42.5767C39.6119 42.8887 40.3498 43.2902 41.0342 43.773C41.2824 43.9398 41.4639 44.1892 41.5466 44.477C41.6293 44.7647 41.6078 45.0722 41.4859 45.3448C41.3819 45.6057 41.2087 45.8328 40.9849 46.0016C40.8312 46.1353 40.6612 46.2491 40.4792 46.3404C39.8476 46.6494 39.1338 46.7487 38.4407 46.624C37.8827 46.5842 37.3388 46.4281 36.8433 46.1658C36.3479 45.9036 35.9118 45.5409 35.5631 45.1009C35.2112 44.6105 34.966 44.0516 34.8437 43.4605C34.7213 42.8695 34.7244 42.2597 34.853 41.6709L29.2799 41.0383L25.6494 50.4578L31.2224 51.0903L31.8148 49.5681C32.7842 50.4343 33.8927 51.1295 35.0929 51.624L33.5684 55.5413L37.9228 56.032L39.2989 52.466C40.6028 52.5531 41.9119 52.501 43.2038 52.3107C44.461 52.1474 45.6856 51.7944 46.8363 51.2635C47.6751 50.883 48.4575 50.3883 49.1612 49.7934C49.4427 49.6704 49.636 49.3838 49.8743 49.1618C50.7734 48.2353 51.473 47.1328 51.9295 45.9225C52.5466 44.5741 52.7533 43.0716 52.5238 41.6028C52.2828 40.5277 51.7421 39.5426 50.9649 38.7625C50.1753 37.9787 49.2468 37.3498 48.2276 36.9085L45.271 35.5882C44.5016 35.2614 43.7653 34.8608 43.0724 34.3919C42.8311 34.2409 42.6516 34.0081 42.5666 33.736C42.4816 33.4638 42.4967 33.1705 42.6093 32.9094C42.7205 32.6267 42.8984 32.3756 43.1278 32.1775C43.3116 32.0251 43.5201 31.9056 43.7444 31.824C44.3486 31.6057 44.9967 31.5365 45.6342 31.6221C46.1794 31.6744 46.7067 31.8468 47.1787 32.1269C47.9013 32.5177 48.4732 33.1401 48.8026 33.8944C49.132 34.6487 49.1998 35.4912 48.9953 36.2868L54.623 36.9291L58.1745 27.7126L52.5328 27.0764L51.9309 28.6533C51.5837 28.3265 51.2119 28.027 50.8189 27.7575C50.3027 27.3827 49.7517 27.0591 49.1734 26.7913L50.6755 22.6311L46.3351 22.1342L44.9195 25.8018C43.6235 25.658 42.3146 25.6966 41.0306 25.9164C39.7543 26.1292 38.5153 26.5228 37.3506 27.0854C36.5224 27.4773 35.7479 27.9741 35.046 28.5635L35.1165 28.5328Z" fill="url(#paint5_linear_4001_2648)"/>
<defs>
<linearGradient id="paint0_linear_4001_2648" x1="37.0798" y1="20.0497" x2="56.3471" y2="69.6292" gradientUnits="userSpaceOnUse">
<stop offset="0.16" stop-color="#FFF8C7"/>
<stop offset="0.2" stop-color="#FFF6C1"/>
<stop offset="0.25" stop-color="#FFF0B1"/>
<stop offset="0.3" stop-color="#FEE696"/>
<stop offset="0.36" stop-color="#FED871"/>
<stop offset="0.42" stop-color="#FDC741"/>
<stop offset="0.47" stop-color="#FCB717"/>
<stop offset="0.54" stop-color="#B55D05"/>
<stop offset="0.56" stop-color="#9F4200"/>
<stop offset="0.61" stop-color="#A04701"/>
<stop offset="0.65" stop-color="#DB9414"/>
<stop offset="0.66" stop-color="#FEC220"/>
<stop offset="0.81" stop-color="#E89A04"/>
<stop offset="0.82" stop-color="#EBA412"/>
<stop offset="0.83" stop-color="#F2B92F"/>
<stop offset="0.84" stop-color="#F7C946"/>
<stop offset="0.86" stop-color="#FBD556"/>
<stop offset="0.88" stop-color="#FDDC60"/>
<stop offset="0.9" stop-color="#FEDE63"/>
<stop offset="1" stop-color="#FCC643"/>
</linearGradient>
<linearGradient id="paint1_linear_4001_2648" x1="15.769" y1="72.5488" x2="68.7945" y2="28.4125" gradientUnits="userSpaceOnUse">
<stop stop-color="#EBAB00"/>
<stop offset="0.08" stop-color="#FFC524"/>
<stop offset="0.15" stop-color="#FFD759"/>
<stop offset="0.41" stop-color="#FFF4A5"/>
<stop offset="0.42" stop-color="#FFF09F"/>
<stop offset="0.44" stop-color="#FDE68F"/>
<stop offset="0.46" stop-color="#FBD674"/>
<stop offset="0.48" stop-color="#F8BF4F"/>
<stop offset="0.5" stop-color="#F4A120"/>
<stop offset="0.52" stop-color="#F28E00"/>
<stop offset="0.56" stop-color="#CA4E00"/>
<stop offset="0.61" stop-color="#A14D00"/>
<stop offset="0.65" stop-color="#EBA500"/>
<stop offset="0.66" stop-color="#F0B116"/>
<stop offset="0.67" stop-color="#F6C137"/>
<stop offset="0.68" stop-color="#FBCD4E"/>
<stop offset="0.69" stop-color="#FFD761"/>
<stop offset="0.73" stop-color="#FFD75F"/>
<stop offset="0.75" stop-color="#FFD558"/>
<stop offset="0.76" stop-color="#FFCF3C"/>
<stop offset="0.77" stop-color="#FFCB29"/>
<stop offset="0.78" stop-color="#FCC524"/>
<stop offset="0.8" stop-color="#F4B418"/>
<stop offset="0.82" stop-color="#E9A216"/>
<stop offset="0.83" stop-color="#F5C64B"/>
<stop offset="0.84" stop-color="#FCDB6B"/>
<stop offset="0.85" stop-color="#FEE173"/>
<stop offset="0.86" stop-color="#FEE275"/>
<stop offset="0.94" stop-color="#FEE47E"/>
<stop offset="1" stop-color="#FED94B"/>
</linearGradient>
<linearGradient id="paint2_linear_4001_2648" x1="32.6742" y1="14.0657" x2="52.424" y2="64.8635" gradientUnits="userSpaceOnUse">
<stop offset="0.16" stop-color="#DE8200"/>
<stop offset="0.21" stop-color="#E18802"/>
<stop offset="0.27" stop-color="#E89809"/>
<stop offset="0.34" stop-color="#F3B314"/>
<stop offset="0.37" stop-color="#F8BD18"/>
<stop offset="0.43" stop-color="#F6AD1A"/>
<stop offset="0.47" stop-color="#F49F1C"/>
<stop offset="0.54" stop-color="#9F4000"/>
<stop offset="0.61" stop-color="#A04701"/>
<stop offset="0.71" stop-color="#FEC423"/>
<stop offset="1" stop-color="#B66300"/>
</linearGradient>
<linearGradient id="paint3_linear_4001_2648" x1="72.336" y1="27.2009" x2="12.0686" y2="50.6227" gradientUnits="userSpaceOnUse">
<stop stop-color="#EFA611"/>
<stop offset="0.41" stop-color="#FFC500"/>
<stop offset="0.53" stop-color="#FDBF00"/>
<stop offset="0.7" stop-color="#F6AF00"/>
<stop offset="0.88" stop-color="#EA9400"/>
<stop offset="1" stop-color="#E17F00"/>
</linearGradient>
<linearGradient id="paint4_linear_4001_2648" x1="27.2406" y1="33.0709" x2="59.3995" y2="71.2925" gradientUnits="userSpaceOnUse">
<stop offset="0.16" stop-color="#CA7700"/>
<stop offset="0.26" stop-color="#C67100"/>
<stop offset="0.38" stop-color="#B96100"/>
<stop offset="0.51" stop-color="#A44600"/>
<stop offset="0.54" stop-color="#9F4000"/>
<stop offset="0.61" stop-color="#A04701"/>
<stop offset="0.71" stop-color="#B35C00"/>
<stop offset="1" stop-color="#9F5800"/>
</linearGradient>
<linearGradient id="paint5_linear_4001_2648" x1="26.7507" y1="32.4307" x2="58.7462" y2="70.6569" gradientUnits="userSpaceOnUse">
<stop stop-color="#EFA611"/>
<stop offset="0.41" stop-color="#FFC500"/>
<stop offset="0.52" stop-color="#FDBF00"/>
<stop offset="0.66" stop-color="#F6AF00"/>
<stop offset="0.77" stop-color="#EF9E00"/>
<stop offset="1" stop-color="#C26B00"/>
</linearGradient>
</defs>
</svg>
