<svg width="80" height="67" viewBox="0 0 80 67" fill="none" xmlns="http://www.w3.org/2000/svg">
<path d="M33.4201 23.6008C14.6835 36.481 4.05968 53.7337 9.67686 62.0828C15.294 70.4319 35.0276 66.6011 53.7512 53.6697C72.4749 40.7384 83.0862 23.5497 77.4821 15.2645C71.8779 6.97931 52.1314 10.7462 33.4204 23.6647L33.4201 23.6008Z" fill="url(#paint0_linear_4001_2622)"/>
<path d="M6.65115 49.5399C9.60429 40.8897 18.7964 30.1778 31.7294 21.4022C44.6624 12.6265 58.0419 8.0133 67.2369 8.45378L71.9855 5.23687L77.473 13.207L77.4734 13.2837L77.4738 13.3604L77.5388 13.4622C83.0676 21.9432 72.1001 39.2555 52.8873 52.3031C33.6744 65.3507 13.6287 69.1279 7.58514 60.9943L1.92842 52.7567L6.65115 49.5399Z" fill="url(#paint1_linear_4001_2622)"/>
<path d="M26.3317 13.5502C7.32873 26.9243 -3.52956 44.7073 2.182 53.2776C7.89355 61.848 27.9725 57.9515 47.0264 44.5901C66.0803 31.2288 76.8876 13.4331 71.1761 4.86271C65.4645 -3.70765 45.3855 0.188876 26.3317 13.5502Z" fill="url(#paint2_linear_4001_2622)"/>
<path d="M10.4726 47.0163C14.783 53.4144 30.2924 50.2574 45.1048 40.0042C59.9171 29.751 68.4478 16.2675 64.1246 9.8695C59.8014 3.47148 44.3049 6.64131 29.4924 16.8817C14.68 27.1221 6.16223 40.6439 10.4726 47.0163Z" fill="url(#paint3_radial_4001_2622)"/>
<path d="M33.6729 18.5478L28.4947 22.0579L29.8027 23.9278C28.3267 24.9206 26.9177 26.0063 25.5843 27.1779C24.4278 28.173 23.3639 29.2675 22.4052 30.4483C21.6669 31.324 21.0914 32.3206 20.7051 33.3925C20.5513 33.7688 20.491 34.1757 20.5291 34.5796C20.5673 34.9834 20.7027 35.3724 20.9243 35.7145C21.2161 36.1378 21.6167 36.4777 22.0855 36.6996C22.5542 36.9215 23.0743 37.0175 23.5931 36.9779C24.9226 36.9317 26.2363 36.6798 27.486 36.2313C28.9985 35.7114 30.4712 35.0856 31.8929 34.3589L36.1035 32.1939C37.3991 31.5366 38.5006 31.0206 39.421 30.6587C40.3414 30.2968 40.9258 30.2684 41.1481 30.5865C41.3705 30.9045 41.1508 31.1225 40.8154 31.5964C40.2275 32.2846 39.5336 32.8781 38.7588 33.3552C37.4253 34.2829 35.9456 34.9888 34.379 35.4445C33.2573 35.8598 32.0168 35.8385 30.9108 35.3849L24.2307 39.8851L27.5662 44.681L34.2333 40.1808L33.697 39.4048C35.4773 38.7438 37.2094 37.9634 38.8809 37.0691L40.2674 39.0664L45.4456 35.5563L44.1379 33.7374C45.6653 32.6705 47.0628 31.5915 48.3562 30.4874C49.5228 29.5088 50.5997 28.4314 51.5746 27.2678C52.315 26.4056 52.8949 25.4219 53.2878 24.3619C53.4378 23.9835 53.4938 23.5755 53.4512 23.1717C53.4085 22.7679 53.2685 22.3799 53.0427 22.0399C52.7437 21.6145 52.3362 21.2739 51.8609 21.0522C51.3856 20.8305 50.8594 20.7355 50.3349 20.7767C49.0046 20.8154 47.6896 21.0676 46.4421 21.5233C44.899 22.05 43.3997 22.6932 41.9575 23.4472L37.656 25.6382C36.3605 26.3082 35.2201 26.8371 34.2869 27.2374C33.3537 27.6377 32.7563 27.6661 32.534 27.3481C32.3116 27.0301 32.5309 26.71 32.944 26.1974C33.5236 25.5885 34.175 25.0497 34.8844 24.5923C35.5522 24.1384 36.2585 23.742 36.9957 23.4076C37.6746 23.0829 38.3819 22.8188 39.109 22.6187C39.7037 22.4467 40.3192 22.3535 40.939 22.3416C41.3983 22.3134 41.8546 22.4321 42.2395 22.6799L48.9972 18.1283L45.7402 13.4596L38.9955 17.9985L39.5449 18.8C39.0133 18.9813 38.3781 19.2397 37.6263 19.5497C36.8745 19.8597 36.0322 20.2723 35.1253 20.7235L33.6341 18.5864L33.6729 18.5478Z" fill="url(#paint4_linear_4001_2622)"/>
<path d="M33.1781 17.3734L28.1975 21.0351L29.4566 22.9671C28.033 23.9991 26.6735 25.1276 25.3868 26.3455C24.2776 27.3835 23.2546 28.5211 22.3293 29.7456C21.6279 30.6622 21.0754 31.6969 20.6948 32.8069C20.5469 33.1983 20.4891 33.6214 20.5259 34.0414C20.5627 34.4614 20.6932 34.866 20.9065 35.2219C21.1874 35.6622 21.573 36.0158 22.024 36.2468C22.4751 36.4777 22.9756 36.5778 23.4747 36.5368C24.7538 36.4893 26.0177 36.2278 27.2198 35.7619C28.6778 35.2298 30.0951 34.5793 31.4591 33.8163L35.5095 31.5795C36.5458 30.9841 37.611 30.4472 38.7007 29.9709C39.5986 29.5948 40.1483 29.5656 40.3627 29.9628C40.577 30.36 40.3654 30.5203 40.0429 31.0264C39.473 31.7333 38.8062 32.3451 38.0649 32.8414C36.7822 33.8057 35.3588 34.5392 33.8517 35.0126C32.781 35.4615 31.5904 35.4673 30.5153 35.0289L24.1024 39.6932L27.3009 44.6822L33.7137 40.0046L33.1974 39.1974C34.9076 38.5096 36.5735 37.7033 38.1841 36.7835L39.5188 38.8479L44.4996 35.1994L43.2407 33.3073C44.7098 32.1983 46.0539 31.0766 47.298 29.9289C48.42 28.9116 49.4557 27.7916 50.3932 26.5817C51.1096 25.6886 51.6677 24.6649 52.0405 23.5602C52.1864 23.1678 52.2422 22.7441 52.2032 22.3241C52.1642 21.9042 52.0315 21.5 51.8162 21.1453C51.5255 20.7026 51.1309 20.3484 50.6716 20.1178C50.2123 19.8872 49.7043 19.7882 49.198 19.8306C47.9182 19.8715 46.6534 20.1332 45.4529 20.6056C43.9694 21.1552 42.5273 21.8234 41.1389 22.6046L37.0138 24.8816C35.7675 25.5779 34.6706 26.1408 33.7603 26.5435C32.8501 26.9462 32.2879 26.9888 32.0739 26.658C31.8598 26.3272 32.0706 25.9942 32.4679 25.4613C33.0254 24.8283 33.6519 24.2682 34.3342 23.7928C34.9794 23.3258 35.6585 22.9142 36.3651 22.5616C37.019 22.2261 37.6992 21.9518 38.398 21.7419C38.9702 21.5633 39.5623 21.4666 40.1586 21.4545C40.6002 21.4281 41.0385 21.5515 41.41 21.8068L47.8974 17.0758L44.7746 12.2191L38.2745 16.937L38.816 17.7706C38.3045 17.959 37.681 18.2275 36.9578 18.5496C36.2346 18.8718 35.4244 19.3006 34.552 19.7695L33.1165 17.5463L33.1781 17.3734Z" fill="url(#paint5_linear_4001_2622)"/>
<path d="M44.0813 39.543C29.2925 49.6363 13.6557 52.5722 9.29214 46.1154C4.92855 39.6585 13.2473 26.206 28.0361 16.1128C42.8248 6.01952 58.3853 3.07127 62.8128 9.61638C67.2404 16.1615 58.8576 29.5131 44.0816 39.6063L44.0813 39.543ZM25.8865 12.9854C7.15985 25.7296 -3.4661 42.7869 2.15097 50.9837C7.76804 59.1805 27.4917 55.4654 46.2181 42.6705C64.9445 29.8756 75.5707 12.869 69.9537 4.6722C64.3366 -3.5246 44.613 0.190469 25.8865 12.9854Z" fill="url(#paint6_linear_4001_2622)"/>
<path style="mix-blend-mode:screen" d="M22.482 54.0455C23.9303 52.0963 25.3784 50.109 26.8009 48.1092C32.8858 46.1407 38.6457 43.2939 43.8954 39.6604C58.7694 29.5343 67.2075 16.0504 62.7512 9.57299C60.0593 5.6511 53.2922 5.17647 45.0687 7.62848C45.2396 5.95208 45.3086 4.37771 45.3271 2.93054C56.7151 -0.933256 66.2947 -0.637324 69.9396 4.67621C75.5938 12.8995 64.9481 29.9611 46.0463 42.798C38.8688 47.8091 30.9069 51.6094 22.482 54.0455Z" fill="url(#paint7_linear_4001_2622)"/>
<defs>
<linearGradient id="paint0_linear_4001_2622" x1="8.76621" y1="37.3067" x2="78.1779" y2="39.8082" gradientUnits="userSpaceOnUse">
<stop offset="0.16" stop-color="#DE8200"/>
<stop offset="0.21" stop-color="#E18802"/>
<stop offset="0.27" stop-color="#E89809"/>
<stop offset="0.34" stop-color="#F3B314"/>
<stop offset="0.37" stop-color="#F8BD18"/>
<stop offset="0.43" stop-color="#F6AD1A"/>
<stop offset="0.47" stop-color="#F49F1C"/>
<stop offset="0.54" stop-color="#9F4000"/>
<stop offset="0.61" stop-color="#A04701"/>
<stop offset="0.71" stop-color="#FEC423"/>
<stop offset="1" stop-color="#B66300"/>
</linearGradient>
<linearGradient id="paint1_linear_4001_2622" x1="75.6816" y1="15.7416" x2="5.84186" y2="63.8681" gradientUnits="userSpaceOnUse">
<stop stop-color="#EBAB00"/>
<stop offset="0.08" stop-color="#FFC524"/>
<stop offset="0.15" stop-color="#FFD759"/>
<stop offset="0.41" stop-color="#FFF4A5"/>
<stop offset="0.42" stop-color="#FFF09F"/>
<stop offset="0.44" stop-color="#FDE68F"/>
<stop offset="0.46" stop-color="#FBD674"/>
<stop offset="0.48" stop-color="#F8BF4F"/>
<stop offset="0.5" stop-color="#F4A120"/>
<stop offset="0.52" stop-color="#F28E00"/>
<stop offset="0.56" stop-color="#CA4E00"/>
<stop offset="0.61" stop-color="#A14D00"/>
<stop offset="0.65" stop-color="#EBA500"/>
<stop offset="0.66" stop-color="#F0B116"/>
<stop offset="0.67" stop-color="#F6C137"/>
<stop offset="0.68" stop-color="#FBCD4E"/>
<stop offset="0.69" stop-color="#FFD761"/>
<stop offset="0.73" stop-color="#FFD75F"/>
<stop offset="0.75" stop-color="#FFD558"/>
<stop offset="0.76" stop-color="#FFCF3C"/>
<stop offset="0.77" stop-color="#FFCB29"/>
<stop offset="0.78" stop-color="#FCC524"/>
<stop offset="0.8" stop-color="#F4B418"/>
<stop offset="0.82" stop-color="#E9A216"/>
<stop offset="0.83" stop-color="#F5C64B"/>
<stop offset="0.84" stop-color="#FCDB6B"/>
<stop offset="0.85" stop-color="#FEE173"/>
<stop offset="0.86" stop-color="#FEE275"/>
<stop offset="0.94" stop-color="#FEE47E"/>
<stop offset="1" stop-color="#FED94B"/>
</linearGradient>
<linearGradient id="paint2_linear_4001_2622" x1="1.25385" y1="27.725" x2="71.9042" y2="30.2246" gradientUnits="userSpaceOnUse">
<stop offset="0.16" stop-color="#FFF8C7"/>
<stop offset="0.2" stop-color="#FFF6C1"/>
<stop offset="0.25" stop-color="#FFF0B1"/>
<stop offset="0.3" stop-color="#FEE696"/>
<stop offset="0.36" stop-color="#FED871"/>
<stop offset="0.42" stop-color="#FDC741"/>
<stop offset="0.47" stop-color="#FCB717"/>
<stop offset="0.56" stop-color="#B55D05"/>
<stop offset="0.58" stop-color="#9F4200"/>
<stop offset="0.63" stop-color="#A04701"/>
<stop offset="0.68" stop-color="#DB9414"/>
<stop offset="0.7" stop-color="#FEC220"/>
<stop offset="0.81" stop-color="#E89A04"/>
<stop offset="0.82" stop-color="#EBA412"/>
<stop offset="0.83" stop-color="#F2B92F"/>
<stop offset="0.85" stop-color="#F7C946"/>
<stop offset="0.86" stop-color="#FBD556"/>
<stop offset="0.88" stop-color="#FDDC60"/>
<stop offset="0.9" stop-color="#FEDE63"/>
<stop offset="1" stop-color="#FCC643"/>
</linearGradient>
<radialGradient id="paint3_radial_4001_2622" cx="0" cy="0" r="1" gradientUnits="userSpaceOnUse" gradientTransform="translate(34.2023 26.2667) rotate(145.268) scale(32.626 13.8938)">
<stop stop-color="#FEDE6D"/>
<stop offset="1" stop-color="#F2AC1A"/>
</radialGradient>
<linearGradient id="paint4_linear_4001_2622" x1="21.9822" y1="38.9447" x2="50.9258" y2="18.8027" gradientUnits="userSpaceOnUse">
<stop offset="0.16" stop-color="#D27B00"/>
<stop offset="0.25" stop-color="#CD7500"/>
<stop offset="0.37" stop-color="#BF6500"/>
<stop offset="0.5" stop-color="#A84A00"/>
<stop offset="0.54" stop-color="#9F4000"/>
<stop offset="0.61" stop-color="#A04701"/>
<stop offset="0.71" stop-color="#E08600"/>
<stop offset="1" stop-color="#9F5800"/>
</linearGradient>
<linearGradient id="paint5_linear_4001_2622" x1="26.3684" y1="12.7186" x2="48.1603" y2="42.7181" gradientUnits="userSpaceOnUse">
<stop stop-color="#FFE48C"/>
<stop offset="0.41" stop-color="#FFF4A5"/>
<stop offset="0.46" stop-color="#FFF29F"/>
<stop offset="0.53" stop-color="#FFED8F"/>
<stop offset="0.61" stop-color="#FFE474"/>
<stop offset="0.7" stop-color="#FFD84F"/>
<stop offset="0.77" stop-color="#FFCB29"/>
<stop offset="0.86" stop-color="#FEE275"/>
<stop offset="0.94" stop-color="#FEE47E"/>
</linearGradient>
<linearGradient id="paint6_linear_4001_2622" x1="36.9668" y1="-0.275281" x2="34.913" y2="56.536" gradientUnits="userSpaceOnUse">
<stop stop-color="#FFD651"/>
<stop offset="0.41" stop-color="#FFEC60"/>
<stop offset="0.48" stop-color="#FFE95A"/>
<stop offset="0.58" stop-color="#FFE14A"/>
<stop offset="0.69" stop-color="#FFD32F"/>
<stop offset="0.77" stop-color="#FFC718"/>
<stop offset="0.86" stop-color="#FED844"/>
<stop offset="0.94" stop-color="#FED949"/>
</linearGradient>
<linearGradient id="paint7_linear_4001_2622" x1="65.7011" y1="32.2182" x2="39.8044" y2="29.76" gradientUnits="userSpaceOnUse">
<stop stop-color="#B7B7B7"/>
<stop offset="1"/>
</linearGradient>
</defs>
</svg>
