<svg width="139" height="148" viewBox="0 0 139 148" fill="none" xmlns="http://www.w3.org/2000/svg">
<path d="M78.2719 58.7192C49.0737 42.047 19.268 38.9898 11.7602 51.8377C4.25241 64.6856 22.0399 88.503 51.2977 105.125C80.5556 121.747 110.268 124.829 117.699 112.04C125.13 99.25 107.42 75.3743 78.1869 58.7607L78.2719 58.7192Z" fill="url(#paint0_linear_4001_2639)"/>
<path d="M26.5191 39.7452C39.9374 38.1172 60.1121 43.4726 80.1131 55.0546C100.114 66.6366 114.859 81.4889 120.183 94.0175L127.52 98.2734L120.434 110.705L120.332 110.755L120.23 110.805L120.136 110.957C112.396 123.772 82.2895 120.295 52.5624 103.096C22.8352 85.8974 4.91851 61.6297 11.8652 48.3526L19.1991 35.5237L26.5191 39.7452Z" fill="url(#paint1_linear_4001_2639)"/>
<path d="M87.0998 42.8183C57.0728 26.1088 26.41 23.0803 18.6682 36.1961C10.9264 49.312 29.0235 73.5471 59.0662 90.3326C89.1089 107.118 119.756 110.071 127.498 96.9548C135.24 83.839 117.143 59.6038 87.0998 42.8183Z" fill="url(#paint2_linear_4001_2639)"/>
<path d="M32.3362 43.2116C26.5866 53.0651 40.7611 71.6901 63.938 84.8251C87.1149 97.96 110.555 100.653 116.297 90.7824C122.038 80.912 107.855 62.3123 84.6948 49.1689C61.535 36.0256 38.0517 33.3748 32.3362 43.2116Z" fill="url(#paint3_radial_4001_2639)"/>
<path d="M85.1636 55.8076L77.1603 51.168L75.5108 54.112C73.2399 52.7847 70.8882 51.6061 68.4708 50.5836C66.4021 49.6831 64.2606 48.9698 62.0717 48.4522C60.4309 48.0319 58.7337 47.9061 57.0579 48.0808C56.4579 48.1179 55.8772 48.2992 55.3639 48.6096C54.8506 48.9199 54.4196 49.3504 54.1064 49.8654C53.7303 50.5262 53.5352 51.2782 53.541 52.0451C53.5468 52.8119 53.7534 53.5664 54.1396 54.2318C55.0557 55.9726 56.2359 57.5602 57.6364 58.9361C59.3012 60.6162 61.0813 62.1752 62.963 63.6013L68.5531 67.817C70.2613 69.1199 71.6566 70.2551 72.7302 71.2482C73.8039 72.2413 74.2173 73.0012 73.9367 73.5018C73.6562 74.0024 73.2245 73.8499 72.3778 73.7079C71.0834 73.3674 69.8469 72.8248 68.7135 72.0998C66.6207 70.9202 64.7294 69.4034 63.1154 67.61C61.8413 66.3833 61.0722 64.7175 60.9653 62.953L50.6778 56.9499L46.4353 64.4749L56.7142 70.4607L57.4029 69.2477C59.4277 71.1937 61.5805 72.9987 63.846 74.6498L62.0775 77.7803L70.0808 82.4198L71.6625 79.509C74.0652 80.8572 76.4006 82.0247 78.7024 83.0375C80.7556 83.9619 82.8826 84.7035 85.059 85.2537C86.6832 85.6855 88.3661 85.8255 90.0304 85.6673C90.6306 85.6238 91.21 85.4361 91.7203 85.1197C92.2307 84.8033 92.6575 84.3674 92.965 83.8482C93.3394 83.1765 93.5309 82.4148 93.5207 81.6393C93.5104 80.8639 93.2987 80.1019 92.9066 79.43C91.9998 77.6833 90.8186 76.0942 89.4097 74.7257C87.7163 73.0093 85.8959 71.4261 83.9648 69.9901L78.2817 65.6702C76.5565 64.3756 75.119 63.1969 73.986 62.2114C72.8531 61.2259 72.4311 60.4487 72.7117 59.9482C72.9923 59.4476 73.5596 59.5338 74.5078 59.7544C75.6913 60.1349 76.8276 60.6561 77.8927 61.3068C78.9265 61.9042 79.9085 62.5901 80.8277 63.3569C81.6966 64.0523 82.5029 64.8244 83.2369 65.664C83.8483 66.3455 84.368 67.1052 84.7823 67.923C85.1152 68.5166 85.2504 69.2005 85.1678 69.8725L95.5736 75.9459L99.6973 68.6072L89.3168 62.5428L88.6027 63.7897C88.0194 63.1983 87.267 62.5185 86.3708 61.7166C85.4746 60.9146 84.3838 60.0582 83.1999 59.1404L85.0874 55.7807L85.1636 55.8076Z" fill="url(#paint4_linear_4001_2639)"/>
<path d="M86.4096 54.3941L78.3313 50.1151L76.5678 53.0339C74.2782 51.8014 71.9015 50.7164 69.4523 49.7858C67.3569 48.9759 65.1844 48.3448 62.9587 47.8997C61.2871 47.5549 59.5541 47.4843 57.8311 47.6909C57.2149 47.7457 56.6141 47.9406 56.0785 48.2596C55.5428 48.5786 55.0879 49.0125 54.7511 49.5253C54.3453 50.1825 54.1222 50.9233 54.1046 51.6725C54.087 52.4217 54.2755 53.1525 54.6509 53.7908C55.5365 55.4637 56.6972 56.9788 58.0905 58.2802C59.7364 59.8799 61.5137 61.3492 63.4068 62.6751L68.9894 66.6313C70.4486 67.6287 71.8484 68.7021 73.1831 69.8471C74.2612 70.8011 74.6535 71.5144 74.2623 72.0552C73.8712 72.596 73.5216 72.4172 72.6404 72.3131C71.3325 72.0085 70.0891 71.5138 68.9516 70.8457C66.8428 69.7574 64.951 68.3333 63.3518 66.6305C62.0655 65.4932 61.2924 63.9114 61.1852 62.1977L50.851 56.656L46.263 64.1228L56.6148 69.6559L57.358 68.4494C59.3734 70.2849 61.5181 71.985 63.7784 73.5387L61.8872 76.6433L69.9479 80.9309L71.6585 78.038C74.0799 79.2816 76.4377 80.3506 78.7659 81.2695C80.842 82.1097 82.9994 82.769 85.2133 83.2398C86.8632 83.6198 88.5853 83.7049 90.2961 83.4911C90.9125 83.4333 91.5126 83.2352 92.0469 82.9133C92.5811 82.5914 93.034 82.1548 93.368 81.64C93.7706 80.9683 93.9887 80.2151 94.0005 79.4552C94.0124 78.6953 93.8177 77.9551 93.4358 77.3081C92.5585 75.63 91.3968 74.1138 89.9961 72.8187C88.3105 71.1964 86.4934 69.7054 84.5606 68.3587L78.8764 64.3288C77.1478 63.1168 75.693 62.0179 74.5716 61.0645C73.4501 60.1111 73.032 59.3899 73.335 58.8921C73.6379 58.3944 74.2169 58.4611 75.182 58.6476C76.3833 58.983 77.532 59.4573 78.6038 60.0604C79.6404 60.6194 80.6252 61.2591 81.549 61.9736C82.4161 62.6287 83.2187 63.3583 83.9475 64.1539C84.5532 64.801 85.0626 65.5274 85.462 66.3138C85.7811 66.885 85.8985 67.5479 85.7973 68.2068L96.2683 73.8051L100.729 66.5241L90.2671 60.9006L89.5049 62.1576C88.9253 61.5976 88.1669 60.9398 87.2729 60.1838C86.379 59.4277 85.2871 58.6245 84.1018 57.764L86.1397 54.4232L86.4096 54.3941Z" fill="url(#paint5_linear_4001_2639)"/>
<path d="M63.8944 83.1659C40.9457 69.9596 26.9835 51.0227 32.7773 41.0607C38.571 31.0987 61.8341 33.5292 84.7827 46.7355C107.731 59.9418 121.661 78.7691 115.791 88.8731C109.921 98.977 86.7508 96.3964 63.8103 83.207L63.8944 83.1659ZM87.5658 41.8624C58.5551 25.116 29.0083 21.9302 21.7032 34.6801C14.3981 47.43 32.0251 71.3085 61.103 88.0221C90.181 104.736 119.661 107.954 126.966 95.2044C134.271 82.4545 116.644 58.576 87.5658 41.8624Z" fill="url(#paint6_linear_4001_2639)"/>
<path style="mix-blend-mode:screen" d="M30.6954 63.7245C34.2223 64.4002 37.7998 65.0512 41.3775 65.66C47.9107 72.498 55.4047 78.3386 63.6184 82.9942C86.6657 96.2929 110.047 98.862 115.809 88.7633C119.301 82.6573 115.583 73.34 107.031 63.9648C109.373 63.1146 111.514 62.1945 113.454 61.2888C125.92 73.9707 131.684 86.9186 126.951 95.1886C119.635 108.005 90.0693 104.796 60.8227 87.8756C49.535 81.5383 39.3557 73.3782 30.6954 63.7245Z" fill="url(#paint7_linear_4001_2639)"/>
<defs>
<linearGradient id="paint0_linear_4001_2639" x1="44.1702" y1="34.6975" x2="85.4606" y2="128.744" gradientUnits="userSpaceOnUse">
<stop offset="0.16" stop-color="#DE8200"/>
<stop offset="0.21" stop-color="#E18802"/>
<stop offset="0.27" stop-color="#E89809"/>
<stop offset="0.34" stop-color="#F3B314"/>
<stop offset="0.37" stop-color="#F8BD18"/>
<stop offset="0.43" stop-color="#F6AD1A"/>
<stop offset="0.47" stop-color="#F49F1C"/>
<stop offset="0.54" stop-color="#9F4000"/>
<stop offset="0.61" stop-color="#A04701"/>
<stop offset="0.71" stop-color="#FEC423"/>
<stop offset="1" stop-color="#B66300"/>
</linearGradient>
<linearGradient id="paint1_linear_4001_2639" x1="115.906" y1="109.949" x2="6.91739" y2="47.8784" gradientUnits="userSpaceOnUse">
<stop stop-color="#EBAB00"/>
<stop offset="0.08" stop-color="#FFC524"/>
<stop offset="0.15" stop-color="#FFD759"/>
<stop offset="0.41" stop-color="#FFF4A5"/>
<stop offset="0.42" stop-color="#FFF09F"/>
<stop offset="0.44" stop-color="#FDE68F"/>
<stop offset="0.46" stop-color="#FBD674"/>
<stop offset="0.48" stop-color="#F8BF4F"/>
<stop offset="0.5" stop-color="#F4A120"/>
<stop offset="0.52" stop-color="#F28E00"/>
<stop offset="0.56" stop-color="#CA4E00"/>
<stop offset="0.61" stop-color="#A14D00"/>
<stop offset="0.65" stop-color="#EBA500"/>
<stop offset="0.66" stop-color="#F0B116"/>
<stop offset="0.67" stop-color="#F6C137"/>
<stop offset="0.68" stop-color="#FBCD4E"/>
<stop offset="0.69" stop-color="#FFD761"/>
<stop offset="0.73" stop-color="#FFD75F"/>
<stop offset="0.75" stop-color="#FFD558"/>
<stop offset="0.76" stop-color="#FFCF3C"/>
<stop offset="0.77" stop-color="#FFCB29"/>
<stop offset="0.78" stop-color="#FCC524"/>
<stop offset="0.8" stop-color="#F4B418"/>
<stop offset="0.82" stop-color="#E9A216"/>
<stop offset="0.83" stop-color="#F5C64B"/>
<stop offset="0.84" stop-color="#FCDB6B"/>
<stop offset="0.85" stop-color="#FEE173"/>
<stop offset="0.86" stop-color="#FEE275"/>
<stop offset="0.94" stop-color="#FEE47E"/>
<stop offset="1" stop-color="#FED94B"/>
</linearGradient>
<linearGradient id="paint2_linear_4001_2639" x1="52.1011" y1="18.5334" x2="94.1903" y2="114.229" gradientUnits="userSpaceOnUse">
<stop offset="0.16" stop-color="#FFF8C7"/>
<stop offset="0.2" stop-color="#FFF6C1"/>
<stop offset="0.25" stop-color="#FFF0B1"/>
<stop offset="0.3" stop-color="#FEE696"/>
<stop offset="0.36" stop-color="#FED871"/>
<stop offset="0.42" stop-color="#FDC741"/>
<stop offset="0.47" stop-color="#FCB717"/>
<stop offset="0.56" stop-color="#B55D05"/>
<stop offset="0.58" stop-color="#9F4200"/>
<stop offset="0.63" stop-color="#A04701"/>
<stop offset="0.68" stop-color="#DB9414"/>
<stop offset="0.7" stop-color="#FEC220"/>
<stop offset="0.81" stop-color="#E89A04"/>
<stop offset="0.82" stop-color="#EBA412"/>
<stop offset="0.83" stop-color="#F2B92F"/>
<stop offset="0.85" stop-color="#F7C946"/>
<stop offset="0.86" stop-color="#FBD556"/>
<stop offset="0.88" stop-color="#FDDC60"/>
<stop offset="0.9" stop-color="#FEDE63"/>
<stop offset="1" stop-color="#FCC643"/>
</linearGradient>
<radialGradient id="paint3_radial_4001_2639" cx="0" cy="0" r="1" gradientUnits="userSpaceOnUse" gradientTransform="translate(75.2242 61.4746) rotate(-150.499) scale(48.2469 20.546)">
<stop stop-color="#FEDE6D"/>
<stop offset="1" stop-color="#F2AC1A"/>
</radialGradient>
<linearGradient id="paint4_linear_4001_2639" x1="50.4847" y1="53.3507" x2="95.9154" y2="78.9479" gradientUnits="userSpaceOnUse">
<stop offset="0.16" stop-color="#D27B00"/>
<stop offset="0.25" stop-color="#CD7500"/>
<stop offset="0.37" stop-color="#BF6500"/>
<stop offset="0.5" stop-color="#A84A00"/>
<stop offset="0.54" stop-color="#9F4000"/>
<stop offset="0.61" stop-color="#A04701"/>
<stop offset="0.71" stop-color="#E08600"/>
<stop offset="1" stop-color="#9F5800"/>
</linearGradient>
<linearGradient id="paint5_linear_4001_2639" x1="88.2309" y1="42.3329" x2="62.2883" y2="90.6395" gradientUnits="userSpaceOnUse">
<stop stop-color="#FFE48C"/>
<stop offset="0.41" stop-color="#FFF4A5"/>
<stop offset="0.46" stop-color="#FFF29F"/>
<stop offset="0.53" stop-color="#FFED8F"/>
<stop offset="0.61" stop-color="#FFE474"/>
<stop offset="0.7" stop-color="#FFD84F"/>
<stop offset="0.77" stop-color="#FFCB29"/>
<stop offset="0.86" stop-color="#FEE275"/>
<stop offset="0.94" stop-color="#FEE47E"/>
</linearGradient>
<linearGradient id="paint6_linear_4001_2639" x1="112.349" y1="48.0938" x2="35.3703" y2="81.8802" gradientUnits="userSpaceOnUse">
<stop stop-color="#FFD651"/>
<stop offset="0.41" stop-color="#FFEC60"/>
<stop offset="0.48" stop-color="#FFE95A"/>
<stop offset="0.58" stop-color="#FFE14A"/>
<stop offset="0.69" stop-color="#FFD32F"/>
<stop offset="0.77" stop-color="#FFC718"/>
<stop offset="0.86" stop-color="#FED844"/>
<stop offset="0.94" stop-color="#FED949"/>
</linearGradient>
<linearGradient id="paint7_linear_4001_2639" x1="87.5474" y1="107.249" x2="74.1733" y2="71.1814" gradientUnits="userSpaceOnUse">
<stop stop-color="#B7B7B7"/>
<stop offset="1"/>
</linearGradient>
</defs>
</svg>
