<svg width="94" height="132" viewBox="0 0 94 132" fill="none" xmlns="http://www.w3.org/2000/svg">
<path d="M18.1035 77.2709C21.6363 89.8899 28.2877 101.411 37.4418 110.768C60.4636 133.619 91.0826 131.109 105.989 105.171C114.939 89.562 116.176 69.0771 110.766 50.3522C107.245 37.7367 100.592 26.222 91.4279 16.884C68.4061 -5.99563 37.7583 -3.48568 22.8805 22.4811C13.9308 38.0611 12.6933 58.546 18.1035 77.2998V77.2709Z" fill="url(#paint0_linear_4001_2631)"/>
<path d="M44.2955 1.51295L34.0607 4.39758L34.4377 5.75328C28.1586 9.71771 22.9758 15.1816 19.361 21.6476C10.17 37.5131 8.92329 58.3402 14.4901 77.523C18.0914 90.3612 24.9043 102.082 34.2927 111.591C45.1943 122.379 57.8065 127.6 69.7229 127.485L70.1288 128.87L79.9866 125.985C90.5396 122.746 99.3775 115.488 104.573 105.793C113.735 89.9559 114.982 69.1 109.444 49.9172C105.833 37.0765 99.0104 25.3555 89.6125 15.8495C75.6086 2.0321 58.8213 -2.66985 44.2955 1.42633V1.51295Z" fill="url(#paint1_linear_4001_2631)"/>
<path d="M4.60405 80.838C8.20329 93.817 15.0124 105.666 24.3954 115.279C47.9248 138.784 79.4518 136.218 94.6648 109.447C103.822 93.4364 105.068 72.3516 99.5329 52.9585C95.8997 39.9895 89.0724 28.1535 79.6836 18.547C56.1543 -4.958 24.6272 -2.3917 9.44322 24.3795C0.257487 40.4189 -0.988528 61.4742 4.57507 80.8672L4.60405 80.838Z" fill="url(#paint2_linear_4001_2631)"/>
<g style="mix-blend-mode:multiply">
<path d="M14.9925 78.3789C17.8229 88.478 23.1409 97.6983 30.4557 105.189C48.8146 123.509 73.3703 121.502 85.3006 100.711C92.4531 88.2076 93.4376 71.8073 89.094 56.7156C86.2951 46.5948 80.9732 37.3572 73.6309 29.8759C55.272 11.5564 30.7163 13.563 18.7859 34.3541C11.6335 46.8578 10.649 63.2581 14.9925 78.3789Z" fill="#D0A662"/>
</g>
<path d="M88.2641 56.6448C92.6556 71.7944 91.6602 88.2868 84.4288 100.809C72.3667 121.68 47.54 123.694 28.9785 105.304C21.5768 97.7893 16.1992 88.532 13.3446 78.3912C8.9531 63.2416 9.94851 46.7492 17.2092 34.2267C29.242 13.3266 54.0687 11.3123 72.6302 29.7021C80.0536 37.212 85.4342 46.4851 88.2641 56.6448ZM3.36123 81.281C6.95286 94.1431 13.7629 105.885 23.1524 115.404C46.5738 138.756 78.1343 136.158 93.4168 109.566C102.58 93.6869 103.839 72.7867 98.2768 53.5797C94.6533 40.7841 87.8338 29.114 78.4563 19.6609C55.0349 -3.69116 23.5037 -1.09325 8.1919 25.4989C-0.971749 41.3782 -2.23065 62.2784 3.33195 81.4563L3.36123 81.281Z" fill="url(#paint3_linear_4001_2631)"/>
<path d="M43.5056 33.0998L39.3165 40.2673L41.5856 42.4747C40.7539 42.813 39.9554 43.2258 39.2001 43.7076C38.1643 44.3113 37.19 45.0121 36.291 45.8005L30.2692 39.8946L28.6402 40.3531L28.7856 42.0162H28.9311L26.022 46.8039L31.3165 51.9646C30.0789 54.0681 29.1577 56.3376 28.582 58.702C27.9781 61.0426 27.7136 63.4558 27.7965 65.8695C27.8765 67.5762 28.1497 69.2687 28.6111 70.9155C28.8147 71.5176 29.0183 72.1197 29.2511 72.7217C30.1335 74.9582 31.4925 76.9821 33.2365 78.6566C35.0425 80.6926 37.4388 82.1334 40.1019 82.7849C42.1195 83.1557 44.2014 82.9771 46.1237 82.2687C48.0373 81.512 49.7928 80.4137 51.3019 79.029L55.6946 75.0442C56.8128 73.9834 58.0642 73.0678 59.4182 72.3203C59.8791 72.0577 60.4158 71.9546 60.9429 72.0274C61.4701 72.1001 61.9574 72.3445 62.3273 72.7217C62.6857 73.1044 62.9451 73.5666 63.0837 74.0691C63.1846 74.4352 63.2528 74.8094 63.2873 75.1873C63.3165 76.495 62.9521 77.782 62.2401 78.8859C61.7485 79.8115 61.0643 80.6245 60.2322 81.2716C59.4 81.9188 58.4387 82.3854 57.411 82.6415C56.3008 82.8793 55.1523 82.8851 54.0398 82.6579C52.9274 82.4307 51.8757 81.9758 50.9528 81.3227L49.3528 81.7816L49.8764 83.1864L45.6583 90.3826L56.3928 100.876L57.5855 104.087L59.2146 103.628L64.5091 94.5683L62.2982 92.4181C64.5331 91.4211 66.5717 90.0427 68.32 88.3468L72.3055 92.2462V94.3391L73.9346 93.8803L78.0655 86.7988L72.9455 81.7529C74.0717 79.5944 74.9685 77.327 75.6218 74.9868C76.2879 72.7145 76.6017 70.3558 76.5527 67.9911C76.5282 66.2721 76.2639 64.5645 75.7673 62.9164C75.5927 62.343 75.4182 61.7984 75.1855 61.225C74.2852 58.9838 72.9061 56.9599 71.1418 55.2904C69.2934 53.2245 66.863 51.7475 64.16 51.0473C62.1143 50.662 60.0003 50.8404 58.051 51.5632C56.1105 52.3569 54.3278 53.4829 52.7855 54.889L48.3055 58.9599C47.1571 60.0392 45.8996 60.9999 44.5528 61.827C44.1101 62.1269 43.5728 62.2604 43.0388 62.2025C42.5048 62.1446 42.0097 61.8993 41.6437 61.5116C41.2192 61.1148 40.9167 60.608 40.771 60.0494C40.6463 59.6311 40.5971 59.1945 40.6256 58.7594C40.6815 57.6362 40.9897 56.5393 41.528 55.5477C42.0663 54.5561 42.8212 53.6945 43.7383 53.0254C44.5198 52.4245 45.4223 51.9946 46.3855 51.7641C47.3433 51.5519 48.3369 51.5519 49.2946 51.7641C49.6326 51.8292 49.9637 51.9251 50.2837 52.0507L50.6328 53.5416L52.2328 53.0828L57.5855 43.9369L44.3783 30.9783L42.7492 31.4367L43.5056 33.0998Z" fill="url(#paint4_linear_4001_2631)"/>
<path d="M27.3646 71.299C27.5386 71.9147 27.7417 72.5208 27.9738 73.1173C28.8705 75.3755 30.2344 77.4211 31.9771 79.1209C33.79 81.1565 36.1748 82.6041 38.8234 83.2769C40.8285 83.6385 42.8947 83.4491 44.7994 82.7287C46.7134 81.9779 48.4659 80.871 49.9632 79.4673L54.3436 75.4553C55.4646 74.3532 56.7108 73.3846 58.0569 72.5691C58.5306 72.2672 59.0966 72.1421 59.6543 72.2161C60.2119 72.29 60.7252 72.5584 61.1029 72.9732C61.474 73.3485 61.7348 73.8175 61.8572 74.3297C61.9718 74.695 62.04 75.0732 62.0602 75.4553C62.1174 76.7752 61.7517 78.079 61.0159 79.1787C60.5276 80.1096 59.8498 80.9288 59.0257 81.5847C58.2016 82.2407 57.2493 82.7188 56.2293 82.9884C55.1203 83.2256 53.9735 83.2274 52.8637 82.9937C51.754 82.7599 50.7063 82.2959 49.7891 81.6319L44.5093 90.7526L57.9989 104.087L63.2786 94.9664L61.1029 92.8017C63.3234 91.7838 65.354 90.3978 67.1079 88.7031L72.7068 94.2737L76.8262 87.1448L71.7205 82.0938C72.8511 79.9142 73.7457 77.6208 74.3894 75.2531C75.0536 72.9655 75.3665 70.5914 75.3177 68.2108C75.2932 66.4803 75.0297 64.7612 74.5344 63.1021C74.5344 62.5249 74.1863 61.9766 73.9832 61.3994C73.064 59.1544 71.6916 57.1208 69.9509 55.4246C68.0931 53.348 65.6613 51.8623 62.9595 51.1531C60.9272 50.7596 58.8242 50.95 56.8965 51.7016C54.9532 52.4719 53.1722 53.5978 51.6457 55.0209L47.1492 59.1191C46.008 60.1981 44.7644 61.1647 43.436 62.0054C42.9945 62.3073 42.4587 62.4413 41.9262 62.383C41.3937 62.3248 40.8999 62.0781 40.535 61.6879C40.1319 61.2839 39.8333 60.7887 39.6647 60.2448C39.5405 59.8137 39.4914 59.3648 39.5197 58.9172C39.5981 57.7128 39.9662 56.5446 40.593 55.5113C41.0931 54.6119 41.7864 53.8336 42.6237 53.2314C43.8399 52.2811 45.3417 51.7643 46.8881 51.7643C48.4346 51.7643 49.9363 52.2811 51.1526 53.2314L56.4904 44.0241L43.2909 30.9783L37.9531 40.2145L40.2159 42.4366C39.392 42.7887 38.5967 43.2038 37.8371 43.6778C36.8036 44.2847 35.8321 44.9903 34.9361 45.7847L28.9021 40.07L24.7827 47.17L30.0335 52.3654C28.8114 54.4889 27.8935 56.7718 27.3066 59.148C26.7133 61.5056 26.4594 63.935 26.5523 66.3636C26.6044 68.0844 26.8774 69.7915 27.3646 71.4434V71.299Z" fill="url(#paint5_linear_4001_2631)"/>
<defs>
<linearGradient id="paint0_linear_4001_2631" x1="14.2338" y1="61.5395" x2="114.093" y2="65.6444" gradientUnits="userSpaceOnUse">
<stop offset="0.16" stop-color="#FFF8C7"/>
<stop offset="0.2" stop-color="#FFF6C1"/>
<stop offset="0.25" stop-color="#FFF0B1"/>
<stop offset="0.3" stop-color="#FEE696"/>
<stop offset="0.36" stop-color="#FED871"/>
<stop offset="0.42" stop-color="#FDC741"/>
<stop offset="0.47" stop-color="#FCB717"/>
<stop offset="0.54" stop-color="#B55D05"/>
<stop offset="0.56" stop-color="#9F4200"/>
<stop offset="0.61" stop-color="#A04701"/>
<stop offset="0.65" stop-color="#DB9414"/>
<stop offset="0.66" stop-color="#FEC220"/>
<stop offset="0.81" stop-color="#E89A04"/>
<stop offset="0.82" stop-color="#EBA412"/>
<stop offset="0.83" stop-color="#F2B92F"/>
<stop offset="0.84" stop-color="#F7C946"/>
<stop offset="0.86" stop-color="#FBD556"/>
<stop offset="0.88" stop-color="#FDDC60"/>
<stop offset="0.9" stop-color="#FEDE63"/>
<stop offset="1" stop-color="#FCC643"/>
</linearGradient>
<linearGradient id="paint1_linear_4001_2631" x1="88.6081" y1="137.712" x2="52.4819" y2="13.2179" gradientUnits="userSpaceOnUse">
<stop stop-color="#EBAB00"/>
<stop offset="0.08" stop-color="#FFC524"/>
<stop offset="0.15" stop-color="#FFD759"/>
<stop offset="0.41" stop-color="#FFF4A5"/>
<stop offset="0.42" stop-color="#FFF09F"/>
<stop offset="0.44" stop-color="#FDE68F"/>
<stop offset="0.46" stop-color="#FBD674"/>
<stop offset="0.48" stop-color="#F8BF4F"/>
<stop offset="0.5" stop-color="#F4A120"/>
<stop offset="0.52" stop-color="#F28E00"/>
<stop offset="0.56" stop-color="#CA4E00"/>
<stop offset="0.61" stop-color="#A14D00"/>
<stop offset="0.65" stop-color="#EBA500"/>
<stop offset="0.66" stop-color="#F0B116"/>
<stop offset="0.67" stop-color="#F6C137"/>
<stop offset="0.68" stop-color="#FBCD4E"/>
<stop offset="0.69" stop-color="#FFD761"/>
<stop offset="0.73" stop-color="#FFD75F"/>
<stop offset="0.75" stop-color="#FFD558"/>
<stop offset="0.76" stop-color="#FFCF3C"/>
<stop offset="0.77" stop-color="#FFCB29"/>
<stop offset="0.78" stop-color="#FCC524"/>
<stop offset="0.8" stop-color="#F4B418"/>
<stop offset="0.82" stop-color="#E9A216"/>
<stop offset="0.83" stop-color="#F5C64B"/>
<stop offset="0.84" stop-color="#FCDB6B"/>
<stop offset="0.85" stop-color="#FEE173"/>
<stop offset="0.86" stop-color="#FEE275"/>
<stop offset="0.94" stop-color="#FEE47E"/>
<stop offset="1" stop-color="#FED94B"/>
</linearGradient>
<linearGradient id="paint2_linear_4001_2631" x1="0.617273" y1="64.6255" x2="102.938" y2="68.8156" gradientUnits="userSpaceOnUse">
<stop offset="0.16" stop-color="#DE8200"/>
<stop offset="0.21" stop-color="#E18802"/>
<stop offset="0.27" stop-color="#E89809"/>
<stop offset="0.34" stop-color="#F3B314"/>
<stop offset="0.37" stop-color="#F8BD18"/>
<stop offset="0.43" stop-color="#F6AD1A"/>
<stop offset="0.47" stop-color="#F49F1C"/>
<stop offset="0.54" stop-color="#9F4000"/>
<stop offset="0.61" stop-color="#A04701"/>
<stop offset="0.71" stop-color="#FEC423"/>
<stop offset="1" stop-color="#B66300"/>
</linearGradient>
<linearGradient id="paint3_linear_4001_2631" x1="53.0585" y1="6.20867" x2="48.0706" y2="127.596" gradientUnits="userSpaceOnUse">
<stop stop-color="#EFA611"/>
<stop offset="0.41" stop-color="#FFC500"/>
<stop offset="0.53" stop-color="#FDBF00"/>
<stop offset="0.7" stop-color="#F6AF00"/>
<stop offset="0.88" stop-color="#EA9400"/>
<stop offset="1" stop-color="#E17F00"/>
</linearGradient>
<linearGradient id="paint4_linear_4001_2631" x1="29.2569" y1="88.2726" x2="119.253" y2="61.6384" gradientUnits="userSpaceOnUse">
<stop offset="0.16" stop-color="#CA7700"/>
<stop offset="0.26" stop-color="#C67100"/>
<stop offset="0.38" stop-color="#B96100"/>
<stop offset="0.51" stop-color="#A44600"/>
<stop offset="0.54" stop-color="#9F4000"/>
<stop offset="0.61" stop-color="#A04701"/>
<stop offset="0.71" stop-color="#B35C00"/>
<stop offset="1" stop-color="#9F5800"/>
</linearGradient>
<linearGradient id="paint5_linear_4001_2631" x1="27.7858" y1="88.6351" x2="117.667" y2="62.286" gradientUnits="userSpaceOnUse">
<stop stop-color="#EFA611"/>
<stop offset="0.41" stop-color="#FFC500"/>
<stop offset="0.52" stop-color="#FDBF00"/>
<stop offset="0.66" stop-color="#F6AF00"/>
<stop offset="0.77" stop-color="#EF9E00"/>
<stop offset="1" stop-color="#C26B00"/>
</linearGradient>
</defs>
</svg>
